# xmcd CD database file
#
# Track frame offsets:
#	150
#	11015
#	25945
#	39635
#	53174
#	70795
#	87311
#	102761
#	115024
#	130941
#	144635
#	157425
#	171210
#	185130
#	198554
#	211371
#	226997
#	242242
#	256533
#	268952
#	286385
#	298096
#	309974
#	324947
#
# Disc length: 4506 seconds
#
# Revision: 1
# Processed by: cddbd v1.5.2PL0 Copyright (c) Steve Scherf et al.
# Submitted via: CDex 1.70beta2
#
DISCID=67119818
DTITLE=Los Tigres del Norte - De Paisano a Paisano
DYEAR=1900
DGENRE=Country
TTITLE0=Intromix - Shark DJ
TTITLE1=De Paisano a Paisano
TTITLE2=Vivan los Mojados
TTITLE3=America
TTITLE4=Jose Perez Leon
TTITLE5=El Mojado Acaudalado
TTITLE6=Somos Mas Americanos
TTITLE7=Jaula de Oro
TTITLE8=Ni de Aqui ni de Alla
TTITLE9=Camisa Mojada
TTITLE10=Tres Veces Mojado
TTITLE11=Carrera Contra La Muerte
TTITLE12=El Gringo y El Mexicano
TTITLE13=La Tumba del Mojado
TTITLE14=El Otro Mexicano
TTITLE15=El Centroamericano
TTITLE16=El Santo de los Mojados
TTITLE17=El Hijo de la Calle (del mojado)
TTITLE18=El Tren
TTITLE19=Los Hijos de Hernandez
TTITLE20=Oueblo Querido
TTITLE21=Sin Fronteras
TTITLE22=Cesar Chavez
TTITLE23=Frontera Internacionale
EXTD=
EXTT0=
EXTT1=
EXTT2=
EXTT3=
EXTT4=
EXTT5=
EXTT6=
EXTT7=
EXTT8=
EXTT9=
EXTT10=
EXTT11=
EXTT12=
EXTT13=
EXTT14=
EXTT15=
EXTT16=
EXTT17=
EXTT18=
EXTT19=
EXTT20=
EXTT21=
EXTT22=
EXTT23=
PLAYORDER=
